<svg xmlns="http://www.w3.org/2000/svg" viewBox="0 0 64 64"><path data-name="layer2" d="M48.7 32.852V11.819C48.7 8.214 45.2 0 32.694 0 20.09-.1 13.388 7.713 13.388 14.824l10.5.9s2.3-7.111 7.8-7.111 5.1 4.407 5.1 5.308a45.384 45.384 0 0 0-.1 4.707c-6.9.2-24.208 2.2-24.208 16.826 0 15.624 19.706 16.325 26.208 6.21a4.709 4.709 0 0 0 .9 1.2c2.4 2.5 5.6 5.508 5.6 5.508l8.1-8.012S48.7 36.758 48.7 32.852zm-12-1.8c0 11.518-12 9.715-12 2.5 0-6.71 7.2-8.113 12-8.213z" fill="#171715"></path><path data-name="layer1" d="M55.4 52.682c-26.408 12.519-42.714 2-53.217-4.307-.6-.4-1.8.1-.8 1.2C4.885 53.784 16.289 64 31.194 64S55 55.787 56.1 54.385c1.2-1.402.4-2.203-.7-1.703z" fill="#ffac35"></path><path data-name="layer1" d="M62.8 48.576c-.7-.9-4.3-1.1-6.6-.8s-5.7 1.7-5.4 2.5c.1.3.5.2 2 0 1.6-.2 5.9-.7 6.9.5.9 1.2-1.4 6.911-1.8 7.812s.2 1.2.9.5a11.061 11.061 0 0 0 3-4.507c1-2.099 1.5-5.304 1-6.005z" fill="#ffac35"></path></svg>
